<mxfile host="app.diagrams.net" agent="Mozilla/5.0 (Windows NT 10.0; Win64; x64) AppleWebKit/537.36 (KHTML, like Gecko) Chrome/128.0.0.0 Safari/537.36" version="24.7.7">
  <diagram id="C5RBs43oDa-KdzZeNtuy" name="Page-1">
    <mxGraphModel dx="1100" dy="2547" grid="1" gridSize="10" guides="1" tooltips="1" connect="1" arrows="1" fold="1" page="1" pageScale="1" pageWidth="827" pageHeight="1169" math="0" shadow="0">
      <root>
        <mxCell id="WIyWlLk6GJQsqaUBKTNV-0" />
        <mxCell id="WIyWlLk6GJQsqaUBKTNV-1" parent="WIyWlLk6GJQsqaUBKTNV-0" />
        <mxCell id="bEsa1zotW0INLgwMvFG9-0" value="Box" style="swimlane;fontStyle=1;align=center;verticalAlign=top;childLayout=stackLayout;horizontal=1;startSize=26;horizontalStack=0;resizeParent=1;resizeParentMax=0;resizeLast=0;collapsible=1;marginBottom=0;whiteSpace=wrap;html=1;" vertex="1" parent="WIyWlLk6GJQsqaUBKTNV-1">
          <mxGeometry x="120" y="120" width="180" height="190" as="geometry" />
        </mxCell>
        <mxCell id="bEsa1zotW0INLgwMvFG9-1" value="&lt;p style=&quot;margin: 0px 0px 0px 4px;&quot;&gt;-&amp;nbsp;&lt;u&gt;idCount: long = 1&lt;/u&gt;&lt;/p&gt;&lt;p style=&quot;margin: 0px 0px 0px 4px;&quot;&gt;- width: double&lt;/p&gt;&lt;p style=&quot;margin: 0px 0px 0px 4px;&quot;&gt;- text: String&lt;/p&gt;&lt;p style=&quot;margin: 0px 0px 0px 4px;&quot;&gt;- ID: long&lt;/p&gt;" style="text;strokeColor=none;fillColor=none;align=left;verticalAlign=top;spacingLeft=4;spacingRight=4;overflow=hidden;rotatable=0;points=[[0,0.5],[1,0.5]];portConstraint=eastwest;whiteSpace=wrap;html=1;" vertex="1" parent="bEsa1zotW0INLgwMvFG9-0">
          <mxGeometry y="26" width="180" height="64" as="geometry" />
        </mxCell>
        <mxCell id="bEsa1zotW0INLgwMvFG9-2" value="" style="line;strokeWidth=1;fillColor=none;align=left;verticalAlign=middle;spacingTop=-1;spacingLeft=3;spacingRight=3;rotatable=0;labelPosition=right;points=[];portConstraint=eastwest;strokeColor=inherit;" vertex="1" parent="bEsa1zotW0INLgwMvFG9-0">
          <mxGeometry y="90" width="180" height="8" as="geometry" />
        </mxCell>
        <mxCell id="bEsa1zotW0INLgwMvFG9-3" value="&lt;div&gt;+ getWidth(): double&lt;/div&gt;&lt;div&gt;+&lt;span style=&quot;background-color: initial;&quot;&gt;&amp;nbsp;setWidth(double width): void&lt;/span&gt;&lt;/div&gt;&lt;div&gt;+ getHeight(): double&lt;/div&gt;&lt;div&gt;+ setHeight(double height): void&lt;/div&gt;&lt;div&gt;+ getText(): String&lt;/div&gt;&lt;div&gt;+ setText(String text): void&lt;/div&gt;" style="text;strokeColor=none;fillColor=none;align=left;verticalAlign=top;spacingLeft=4;spacingRight=4;overflow=hidden;rotatable=0;points=[[0,0.5],[1,0.5]];portConstraint=eastwest;whiteSpace=wrap;html=1;" vertex="1" parent="bEsa1zotW0INLgwMvFG9-0">
          <mxGeometry y="98" width="180" height="92" as="geometry" />
        </mxCell>
        <mxCell id="bEsa1zotW0INLgwMvFG9-4" value="&lt;p style=&quot;margin:0px;margin-top:4px;text-align:center;&quot;&gt;&lt;i&gt;&amp;lt;&amp;lt;Interface&amp;gt;&amp;gt;&lt;/i&gt;&lt;br&gt;&lt;b&gt;UMLShape&lt;/b&gt;&lt;/p&gt;&lt;hr size=&quot;1&quot; style=&quot;border-style:solid;&quot;&gt;&lt;p style=&quot;margin:0px;margin-left:4px;&quot;&gt;+ draw(): void&lt;/p&gt;&lt;p style=&quot;margin:0px;margin-left:4px;&quot;&gt;+ clone(): Box&lt;/p&gt;" style="verticalAlign=top;align=left;overflow=fill;html=1;whiteSpace=wrap;" vertex="1" parent="WIyWlLk6GJQsqaUBKTNV-1">
          <mxGeometry x="530" y="-120" width="190" height="80" as="geometry" />
        </mxCell>
        <mxCell id="bEsa1zotW0INLgwMvFG9-5" value="Ellipse" style="swimlane;fontStyle=1;align=center;verticalAlign=top;childLayout=stackLayout;horizontal=1;startSize=26;horizontalStack=0;resizeParent=1;resizeParentMax=0;resizeLast=0;collapsible=1;marginBottom=0;whiteSpace=wrap;html=1;" vertex="1" parent="WIyWlLk6GJQsqaUBKTNV-1">
          <mxGeometry x="360" y="120" width="180" height="210" as="geometry" />
        </mxCell>
        <mxCell id="bEsa1zotW0INLgwMvFG9-6" value="&lt;p style=&quot;margin: 0px 0px 0px 4px;&quot;&gt;-&amp;nbsp;&lt;u&gt;idCount: long = 1&lt;/u&gt;&lt;/p&gt;&lt;p style=&quot;margin: 0px 0px 0px 4px;&quot;&gt;- a: double&lt;/p&gt;&lt;p style=&quot;margin: 0px 0px 0px 4px;&quot;&gt;&lt;span style=&quot;background-color: initial;&quot;&gt;- b: double&lt;/span&gt;&lt;/p&gt;&lt;p style=&quot;margin: 0px 0px 0px 4px;&quot;&gt;&lt;span style=&quot;background-color: initial;&quot;&gt;- text: String&lt;/span&gt;&lt;/p&gt;&lt;p style=&quot;margin: 0px 0px 0px 4px;&quot;&gt;- ID: long&lt;/p&gt;" style="text;strokeColor=none;fillColor=none;align=left;verticalAlign=top;spacingLeft=4;spacingRight=4;overflow=hidden;rotatable=0;points=[[0,0.5],[1,0.5]];portConstraint=eastwest;whiteSpace=wrap;html=1;" vertex="1" parent="bEsa1zotW0INLgwMvFG9-5">
          <mxGeometry y="26" width="180" height="84" as="geometry" />
        </mxCell>
        <mxCell id="bEsa1zotW0INLgwMvFG9-7" value="" style="line;strokeWidth=1;fillColor=none;align=left;verticalAlign=middle;spacingTop=-1;spacingLeft=3;spacingRight=3;rotatable=0;labelPosition=right;points=[];portConstraint=eastwest;strokeColor=inherit;" vertex="1" parent="bEsa1zotW0INLgwMvFG9-5">
          <mxGeometry y="110" width="180" height="8" as="geometry" />
        </mxCell>
        <mxCell id="bEsa1zotW0INLgwMvFG9-8" value="&lt;div&gt;+ getA(): double&lt;/div&gt;&lt;div&gt;+&lt;span style=&quot;background-color: initial;&quot;&gt;&amp;nbsp;setA(double a): void&lt;/span&gt;&lt;/div&gt;&lt;div&gt;+ getB(): double&lt;/div&gt;&lt;div&gt;+ setB(double b): void&lt;/div&gt;&lt;div&gt;+ getText(): String&lt;/div&gt;&lt;div&gt;+ setText(String text): void&lt;/div&gt;" style="text;strokeColor=none;fillColor=none;align=left;verticalAlign=top;spacingLeft=4;spacingRight=4;overflow=hidden;rotatable=0;points=[[0,0.5],[1,0.5]];portConstraint=eastwest;whiteSpace=wrap;html=1;" vertex="1" parent="bEsa1zotW0INLgwMvFG9-5">
          <mxGeometry y="118" width="180" height="92" as="geometry" />
        </mxCell>
        <mxCell id="bEsa1zotW0INLgwMvFG9-9" value="Line" style="swimlane;fontStyle=1;align=center;verticalAlign=top;childLayout=stackLayout;horizontal=1;startSize=26;horizontalStack=0;resizeParent=1;resizeParentMax=0;resizeLast=0;collapsible=1;marginBottom=0;whiteSpace=wrap;html=1;" vertex="1" parent="WIyWlLk6GJQsqaUBKTNV-1">
          <mxGeometry x="600" y="120" width="220" height="210" as="geometry" />
        </mxCell>
        <mxCell id="bEsa1zotW0INLgwMvFG9-10" value="&lt;p style=&quot;margin: 0px 0px 0px 4px;&quot;&gt;-&amp;nbsp;&lt;u&gt;idCount: long = 1&lt;/u&gt;&lt;/p&gt;&lt;p style=&quot;margin: 0px 0px 0px 4px;&quot;&gt;- style: String&lt;/p&gt;&lt;p style=&quot;margin: 0px 0px 0px 4px;&quot;&gt;- startArrow: String&lt;/p&gt;&lt;p style=&quot;margin: 0px 0px 0px 4px;&quot;&gt;- endArrow: String&lt;/p&gt;&lt;p style=&quot;margin: 0px 0px 0px 4px;&quot;&gt;- ID: long&lt;/p&gt;" style="text;strokeColor=none;fillColor=none;align=left;verticalAlign=top;spacingLeft=4;spacingRight=4;overflow=hidden;rotatable=0;points=[[0,0.5],[1,0.5]];portConstraint=eastwest;whiteSpace=wrap;html=1;" vertex="1" parent="bEsa1zotW0INLgwMvFG9-9">
          <mxGeometry y="26" width="220" height="84" as="geometry" />
        </mxCell>
        <mxCell id="bEsa1zotW0INLgwMvFG9-11" value="" style="line;strokeWidth=1;fillColor=none;align=left;verticalAlign=middle;spacingTop=-1;spacingLeft=3;spacingRight=3;rotatable=0;labelPosition=right;points=[];portConstraint=eastwest;strokeColor=inherit;" vertex="1" parent="bEsa1zotW0INLgwMvFG9-9">
          <mxGeometry y="110" width="220" height="8" as="geometry" />
        </mxCell>
        <mxCell id="bEsa1zotW0INLgwMvFG9-12" value="&lt;div&gt;+ getStyle(): double&lt;/div&gt;&lt;div&gt;+&lt;span style=&quot;background-color: initial;&quot;&gt;&amp;nbsp;setStyle(String style): void&lt;/span&gt;&lt;/div&gt;&lt;div&gt;+ getStartArrow(): String&lt;/div&gt;&lt;div&gt;+ setStartArrow(String startArrow): void&lt;/div&gt;&lt;div&gt;+ getEndArrow(): String&lt;/div&gt;&lt;div&gt;+ setEndArrow(String endArrow): void&lt;/div&gt;" style="text;strokeColor=none;fillColor=none;align=left;verticalAlign=top;spacingLeft=4;spacingRight=4;overflow=hidden;rotatable=0;points=[[0,0.5],[1,0.5]];portConstraint=eastwest;whiteSpace=wrap;html=1;" vertex="1" parent="bEsa1zotW0INLgwMvFG9-9">
          <mxGeometry y="118" width="220" height="92" as="geometry" />
        </mxCell>
        <mxCell id="bEsa1zotW0INLgwMvFG9-13" value="Container" style="swimlane;fontStyle=1;align=center;verticalAlign=top;childLayout=stackLayout;horizontal=1;startSize=26;horizontalStack=0;resizeParent=1;resizeParentMax=0;resizeLast=0;collapsible=1;marginBottom=0;whiteSpace=wrap;html=1;" vertex="1" parent="WIyWlLk6GJQsqaUBKTNV-1">
          <mxGeometry x="880" y="120" width="250" height="170" as="geometry" />
        </mxCell>
        <mxCell id="bEsa1zotW0INLgwMvFG9-14" value="&lt;p style=&quot;margin: 0px 0px 0px 4px;&quot;&gt;-&amp;nbsp;&lt;u&gt;idCount: long = 1&lt;/u&gt;&lt;/p&gt;&lt;p style=&quot;margin: 0px 0px 0px 4px;&quot;&gt;- shapes: List&amp;lt;UMLShape&amp;gt;&lt;/p&gt;&lt;p style=&quot;margin: 0px 0px 0px 4px;&quot;&gt;&lt;span style=&quot;background-color: initial;&quot;&gt;- label: String&lt;/span&gt;&lt;/p&gt;&lt;p style=&quot;margin: 0px 0px 0px 4px;&quot;&gt;&lt;span style=&quot;background-color: initial;&quot;&gt;- ID: long&lt;/span&gt;&lt;br&gt;&lt;/p&gt;" style="text;strokeColor=none;fillColor=none;align=left;verticalAlign=top;spacingLeft=4;spacingRight=4;overflow=hidden;rotatable=0;points=[[0,0.5],[1,0.5]];portConstraint=eastwest;whiteSpace=wrap;html=1;" vertex="1" parent="bEsa1zotW0INLgwMvFG9-13">
          <mxGeometry y="26" width="250" height="64" as="geometry" />
        </mxCell>
        <mxCell id="bEsa1zotW0INLgwMvFG9-15" value="" style="line;strokeWidth=1;fillColor=none;align=left;verticalAlign=middle;spacingTop=-1;spacingLeft=3;spacingRight=3;rotatable=0;labelPosition=right;points=[];portConstraint=eastwest;strokeColor=inherit;" vertex="1" parent="bEsa1zotW0INLgwMvFG9-13">
          <mxGeometry y="90" width="250" height="8" as="geometry" />
        </mxCell>
        <mxCell id="bEsa1zotW0INLgwMvFG9-16" value="&lt;div&gt;+ getShapes(): List&amp;lt;UMLShape&amp;gt;&lt;/div&gt;&lt;div&gt;+ setShapes(&lt;span style=&quot;background-color: initial;&quot;&gt;List&amp;lt;UMLShape&amp;gt; shapes): void&lt;/span&gt;&lt;/div&gt;&lt;div&gt;&lt;span style=&quot;background-color: initial;&quot;&gt;+ getLabel(): String&lt;/span&gt;&lt;/div&gt;&lt;div&gt;&lt;span style=&quot;background-color: initial;&quot;&gt;+ setLabel(String label): void&lt;/span&gt;&lt;/div&gt;" style="text;strokeColor=none;fillColor=none;align=left;verticalAlign=top;spacingLeft=4;spacingRight=4;overflow=hidden;rotatable=0;points=[[0,0.5],[1,0.5]];portConstraint=eastwest;whiteSpace=wrap;html=1;" vertex="1" parent="bEsa1zotW0INLgwMvFG9-13">
          <mxGeometry y="98" width="250" height="72" as="geometry" />
        </mxCell>
        <mxCell id="bEsa1zotW0INLgwMvFG9-17" value="" style="endArrow=block;dashed=1;endFill=0;endSize=12;html=1;rounded=0;exitX=0.5;exitY=0;exitDx=0;exitDy=0;entryX=0.5;entryY=1;entryDx=0;entryDy=0;" edge="1" parent="WIyWlLk6GJQsqaUBKTNV-1" source="bEsa1zotW0INLgwMvFG9-0" target="bEsa1zotW0INLgwMvFG9-4">
          <mxGeometry width="160" relative="1" as="geometry">
            <mxPoint x="510" y="170" as="sourcePoint" />
            <mxPoint x="670" y="170" as="targetPoint" />
          </mxGeometry>
        </mxCell>
        <mxCell id="bEsa1zotW0INLgwMvFG9-20" value="" style="endArrow=block;dashed=1;endFill=0;endSize=12;html=1;rounded=0;exitX=0.5;exitY=0;exitDx=0;exitDy=0;entryX=0.5;entryY=1;entryDx=0;entryDy=0;" edge="1" parent="WIyWlLk6GJQsqaUBKTNV-1" source="bEsa1zotW0INLgwMvFG9-5" target="bEsa1zotW0INLgwMvFG9-4">
          <mxGeometry width="160" relative="1" as="geometry">
            <mxPoint x="510" y="170" as="sourcePoint" />
            <mxPoint x="670" y="170" as="targetPoint" />
          </mxGeometry>
        </mxCell>
        <mxCell id="bEsa1zotW0INLgwMvFG9-21" value="" style="endArrow=block;dashed=1;endFill=0;endSize=12;html=1;rounded=0;exitX=0.5;exitY=0;exitDx=0;exitDy=0;entryX=0.5;entryY=1;entryDx=0;entryDy=0;" edge="1" parent="WIyWlLk6GJQsqaUBKTNV-1" source="bEsa1zotW0INLgwMvFG9-9" target="bEsa1zotW0INLgwMvFG9-4">
          <mxGeometry width="160" relative="1" as="geometry">
            <mxPoint x="510" y="170" as="sourcePoint" />
            <mxPoint x="670" y="170" as="targetPoint" />
          </mxGeometry>
        </mxCell>
        <mxCell id="bEsa1zotW0INLgwMvFG9-22" value="" style="endArrow=block;dashed=1;endFill=0;endSize=12;html=1;rounded=0;exitX=0.5;exitY=0;exitDx=0;exitDy=0;entryX=0.5;entryY=1;entryDx=0;entryDy=0;" edge="1" parent="WIyWlLk6GJQsqaUBKTNV-1" source="bEsa1zotW0INLgwMvFG9-13" target="bEsa1zotW0INLgwMvFG9-4">
          <mxGeometry width="160" relative="1" as="geometry">
            <mxPoint x="510" y="170" as="sourcePoint" />
            <mxPoint x="620" y="-40" as="targetPoint" />
          </mxGeometry>
        </mxCell>
        <mxCell id="bEsa1zotW0INLgwMvFG9-23" value="UMLShapeCollection" style="swimlane;fontStyle=1;align=center;verticalAlign=top;childLayout=stackLayout;horizontal=1;startSize=26;horizontalStack=0;resizeParent=1;resizeParentMax=0;resizeLast=0;collapsible=1;marginBottom=0;whiteSpace=wrap;html=1;" vertex="1" parent="WIyWlLk6GJQsqaUBKTNV-1">
          <mxGeometry x="880" y="-240" width="330" height="100" as="geometry" />
        </mxCell>
        <mxCell id="bEsa1zotW0INLgwMvFG9-24" value="- prototype:Map&amp;lt;UMLShapeType, UMLShape&amp;gt;" style="text;strokeColor=none;fillColor=none;align=left;verticalAlign=top;spacingLeft=4;spacingRight=4;overflow=hidden;rotatable=0;points=[[0,0.5],[1,0.5]];portConstraint=eastwest;whiteSpace=wrap;html=1;" vertex="1" parent="bEsa1zotW0INLgwMvFG9-23">
          <mxGeometry y="26" width="330" height="24" as="geometry" />
        </mxCell>
        <mxCell id="bEsa1zotW0INLgwMvFG9-25" value="" style="line;strokeWidth=1;fillColor=none;align=left;verticalAlign=middle;spacingTop=-1;spacingLeft=3;spacingRight=3;rotatable=0;labelPosition=right;points=[];portConstraint=eastwest;strokeColor=inherit;" vertex="1" parent="bEsa1zotW0INLgwMvFG9-23">
          <mxGeometry y="50" width="330" height="8" as="geometry" />
        </mxCell>
        <mxCell id="bEsa1zotW0INLgwMvFG9-26" value="+ addShape(UMLShapeType type, UMLShape shape): void&lt;div&gt;+ getShape(UMLShapeType type): UMLShape&lt;/div&gt;" style="text;strokeColor=none;fillColor=none;align=left;verticalAlign=top;spacingLeft=4;spacingRight=4;overflow=hidden;rotatable=0;points=[[0,0.5],[1,0.5]];portConstraint=eastwest;whiteSpace=wrap;html=1;" vertex="1" parent="bEsa1zotW0INLgwMvFG9-23">
          <mxGeometry y="58" width="330" height="42" as="geometry" />
        </mxCell>
        <mxCell id="bEsa1zotW0INLgwMvFG9-29" value="Use" style="endArrow=open;endSize=12;dashed=1;html=1;rounded=0;exitX=0.483;exitY=1.046;exitDx=0;exitDy=0;exitPerimeter=0;entryX=1;entryY=0.5;entryDx=0;entryDy=0;" edge="1" parent="WIyWlLk6GJQsqaUBKTNV-1" source="bEsa1zotW0INLgwMvFG9-26" target="bEsa1zotW0INLgwMvFG9-4">
          <mxGeometry width="160" relative="1" as="geometry">
            <mxPoint x="780" y="-10" as="sourcePoint" />
            <mxPoint x="940" y="-10" as="targetPoint" />
          </mxGeometry>
        </mxCell>
        <mxCell id="bEsa1zotW0INLgwMvFG9-30" value="UMLShapeType" style="swimlane;fontStyle=1;align=center;verticalAlign=top;childLayout=stackLayout;horizontal=1;startSize=26;horizontalStack=0;resizeParent=1;resizeParentMax=0;resizeLast=0;collapsible=1;marginBottom=0;whiteSpace=wrap;html=1;" vertex="1" parent="WIyWlLk6GJQsqaUBKTNV-1">
          <mxGeometry x="545" y="-440" width="160" height="140" as="geometry" />
        </mxCell>
        <mxCell id="bEsa1zotW0INLgwMvFG9-33" value="GENERALISATION&lt;div&gt;IMPLEMENTATION&lt;/div&gt;&lt;div&gt;USE_CASE&lt;/div&gt;&lt;div&gt;ACTOR&lt;/div&gt;&lt;div&gt;USE_CASE_DIAGRAM&lt;/div&gt;&lt;div&gt;UML_CLASS&lt;/div&gt;&lt;div&gt;BASIC_LINE&lt;/div&gt;" style="text;strokeColor=none;fillColor=none;align=left;verticalAlign=top;spacingLeft=4;spacingRight=4;overflow=hidden;rotatable=0;points=[[0,0.5],[1,0.5]];portConstraint=eastwest;whiteSpace=wrap;html=1;" vertex="1" parent="bEsa1zotW0INLgwMvFG9-30">
          <mxGeometry y="26" width="160" height="114" as="geometry" />
        </mxCell>
        <mxCell id="bEsa1zotW0INLgwMvFG9-34" value="Use" style="endArrow=open;endSize=12;dashed=1;html=1;rounded=0;exitX=0.5;exitY=0;exitDx=0;exitDy=0;entryX=1;entryY=0.5;entryDx=0;entryDy=0;" edge="1" parent="WIyWlLk6GJQsqaUBKTNV-1" source="bEsa1zotW0INLgwMvFG9-23" target="bEsa1zotW0INLgwMvFG9-33">
          <mxGeometry width="160" relative="1" as="geometry">
            <mxPoint x="690" y="-150" as="sourcePoint" />
            <mxPoint x="850" y="-150" as="targetPoint" />
          </mxGeometry>
        </mxCell>
        <mxCell id="bEsa1zotW0INLgwMvFG9-35" value="UMLDiagramToolTest" style="swimlane;fontStyle=1;align=center;verticalAlign=top;childLayout=stackLayout;horizontal=1;startSize=26;horizontalStack=0;resizeParent=1;resizeParentMax=0;resizeLast=0;collapsible=1;marginBottom=0;whiteSpace=wrap;html=1;" vertex="1" parent="WIyWlLk6GJQsqaUBKTNV-1">
          <mxGeometry x="1320" y="-440" width="280" height="150" as="geometry" />
        </mxCell>
        <mxCell id="bEsa1zotW0INLgwMvFG9-38" value="- getBasicLine(): UMLShape&lt;div&gt;- getImplementationLine(): UMLShape&lt;/div&gt;&lt;div&gt;- getGeneralizationLine(): UMLShape&lt;/div&gt;&lt;div&gt;-&lt;/div&gt;" style="text;strokeColor=none;fillColor=none;align=left;verticalAlign=top;spacingLeft=4;spacingRight=4;overflow=hidden;rotatable=0;points=[[0,0.5],[1,0.5]];portConstraint=eastwest;whiteSpace=wrap;html=1;" vertex="1" parent="bEsa1zotW0INLgwMvFG9-35">
          <mxGeometry y="26" width="280" height="124" as="geometry" />
        </mxCell>
      </root>
    </mxGraphModel>
  </diagram>
</mxfile>
